<mxfile host="app.diagrams.net" agent="Mozilla/5.0 (Windows NT 10.0; Win64; x64) AppleWebKit/537.36 (KHTML, like Gecko) Chrome/132.0.0.0 Safari/537.36 Edg/132.0.0.0" version="26.0.7">
  <diagram name="Page-1" id="qjxpVgBRS9zOOTXjjIfq">
    <mxGraphModel dx="813" dy="348" grid="1" gridSize="10" guides="1" tooltips="1" connect="1" arrows="1" fold="1" page="1" pageScale="1" pageWidth="850" pageHeight="1100" math="0" shadow="0">
      <root>
        <mxCell id="0" />
        <mxCell id="1" parent="0" />
        <mxCell id="E6wu_Sl9GeRM73bdmKUh-53" value="&lt;p style=&quot;margin:0px;margin-top:4px;text-align:center;&quot;&gt;&lt;b&gt;Hệ thống&lt;/b&gt;&lt;/p&gt;&lt;hr size=&quot;1&quot; style=&quot;border-style:solid;&quot;&gt;&lt;div style=&quot;height:2px;&quot;&gt;&lt;/div&gt;" style="verticalAlign=top;align=left;overflow=fill;html=1;whiteSpace=wrap;" vertex="1" parent="1">
          <mxGeometry x="260" width="380" height="440" as="geometry" />
        </mxCell>
        <mxCell id="E6wu_Sl9GeRM73bdmKUh-52" value="&lt;p style=&quot;margin:0px;margin-top:4px;text-align:center;&quot;&gt;&lt;b&gt;Người dùng&lt;/b&gt;&lt;/p&gt;&lt;hr size=&quot;1&quot; style=&quot;border-style:solid;&quot;&gt;&lt;div style=&quot;height:2px;&quot;&gt;&lt;/div&gt;" style="verticalAlign=top;align=left;overflow=fill;html=1;whiteSpace=wrap;" vertex="1" parent="1">
          <mxGeometry width="260" height="520" as="geometry" />
        </mxCell>
        <mxCell id="E6wu_Sl9GeRM73bdmKUh-49" value="" style="edgeStyle=orthogonalEdgeStyle;rounded=0;orthogonalLoop=1;jettySize=auto;html=1;strokeColor=light-dark(#FF0000,#FFFFFF);" edge="1" parent="1" source="E6wu_Sl9GeRM73bdmKUh-1" target="E6wu_Sl9GeRM73bdmKUh-2">
          <mxGeometry relative="1" as="geometry" />
        </mxCell>
        <mxCell id="E6wu_Sl9GeRM73bdmKUh-1" value="" style="ellipse;html=1;shape=startState;fillColor=#000000;strokeColor=light-dark(#FF0000,#FFFFFF);" vertex="1" parent="1">
          <mxGeometry x="20" y="45" width="30" height="30" as="geometry" />
        </mxCell>
        <mxCell id="E6wu_Sl9GeRM73bdmKUh-5" value="" style="edgeStyle=orthogonalEdgeStyle;rounded=0;orthogonalLoop=1;jettySize=auto;html=1;strokeColor=light-dark(#FF0000,#FFFFFF);" edge="1" parent="1" source="E6wu_Sl9GeRM73bdmKUh-2" target="E6wu_Sl9GeRM73bdmKUh-3">
          <mxGeometry relative="1" as="geometry" />
        </mxCell>
        <mxCell id="E6wu_Sl9GeRM73bdmKUh-2" value="Xuất hàng" style="rounded=1;whiteSpace=wrap;html=1;arcSize=40;fontColor=#000000;fillColor=#ffffc0;strokeColor=light-dark(#FF0000,#FFFFFF);" vertex="1" parent="1">
          <mxGeometry x="100" y="40" width="120" height="40" as="geometry" />
        </mxCell>
        <mxCell id="E6wu_Sl9GeRM73bdmKUh-36" value="" style="edgeStyle=orthogonalEdgeStyle;rounded=0;orthogonalLoop=1;jettySize=auto;html=1;strokeColor=light-dark(#FF0000,#FFFFFF);" edge="1" parent="1" source="E6wu_Sl9GeRM73bdmKUh-3" target="E6wu_Sl9GeRM73bdmKUh-35">
          <mxGeometry relative="1" as="geometry" />
        </mxCell>
        <mxCell id="E6wu_Sl9GeRM73bdmKUh-3" value="Kiểm tra các mặt hàng trong CSDL" style="rounded=1;whiteSpace=wrap;html=1;arcSize=40;fontColor=#000000;fillColor=#ffffc0;strokeColor=light-dark(#FF0000,#FFFFFF);" vertex="1" parent="1">
          <mxGeometry x="300" y="40" width="120" height="40" as="geometry" />
        </mxCell>
        <mxCell id="E6wu_Sl9GeRM73bdmKUh-6" value="Hạn sử dụng các&lt;br&gt;mặt hàng còn &amp;lt; 1 tháng và số lượng hàng tồn kho &amp;gt; 1000" style="whiteSpace=wrap;html=1;shape=mxgraph.basic.document;align=center;strokeColor=light-dark(#000000,#FFFFFF);" vertex="1" parent="1">
          <mxGeometry x="460" y="40" width="120" height="80" as="geometry" />
        </mxCell>
        <mxCell id="E6wu_Sl9GeRM73bdmKUh-38" style="edgeStyle=orthogonalEdgeStyle;rounded=0;orthogonalLoop=1;jettySize=auto;html=1;entryX=0;entryY=0.5;entryDx=0;entryDy=0;strokeColor=light-dark(#FF0000,#FFFFFF);" edge="1" parent="1" source="E6wu_Sl9GeRM73bdmKUh-9" target="E6wu_Sl9GeRM73bdmKUh-10">
          <mxGeometry relative="1" as="geometry">
            <Array as="points">
              <mxPoint x="160" y="220" />
            </Array>
          </mxGeometry>
        </mxCell>
        <mxCell id="E6wu_Sl9GeRM73bdmKUh-9" value="Chọn mặt hàng" style="rounded=1;whiteSpace=wrap;html=1;arcSize=50;fontColor=#000000;fillColor=#ffffc0;strokeColor=light-dark(#FF0000,#FFFFFF);" vertex="1" parent="1">
          <mxGeometry x="100" y="120" width="120" height="40" as="geometry" />
        </mxCell>
        <mxCell id="E6wu_Sl9GeRM73bdmKUh-40" style="edgeStyle=orthogonalEdgeStyle;rounded=0;orthogonalLoop=1;jettySize=auto;html=1;entryX=0.5;entryY=0;entryDx=0;entryDy=0;strokeColor=light-dark(#FF0000,#FFFFFF);" edge="1" parent="1" source="E6wu_Sl9GeRM73bdmKUh-10" target="E6wu_Sl9GeRM73bdmKUh-21">
          <mxGeometry relative="1" as="geometry">
            <Array as="points">
              <mxPoint x="360" y="260" />
              <mxPoint x="160" y="260" />
            </Array>
          </mxGeometry>
        </mxCell>
        <mxCell id="E6wu_Sl9GeRM73bdmKUh-10" value="Hệ thống hiển thị thông tin chi tiết" style="rounded=1;whiteSpace=wrap;html=1;arcSize=40;fontColor=#000000;fillColor=#ffffc0;strokeColor=light-dark(#FF0000,#FFFFFF);" vertex="1" parent="1">
          <mxGeometry x="300" y="200" width="120" height="40" as="geometry" />
        </mxCell>
        <mxCell id="E6wu_Sl9GeRM73bdmKUh-13" value="Mã lô hàng, nguồn nhập, ngày giờ thời gian nhập hàng, hạn sử dụng, số lượng hàng tồn kho" style="whiteSpace=wrap;html=1;shape=mxgraph.basic.document;align=center;strokeColor=light-dark(#000000,#FFFFFF);" vertex="1" parent="1">
          <mxGeometry x="460" y="180" width="120" height="80" as="geometry" />
        </mxCell>
        <mxCell id="E6wu_Sl9GeRM73bdmKUh-17" value="" style="endArrow=none;dashed=1;html=1;dashPattern=1 3;strokeWidth=2;rounded=0;strokeColor=light-dark(#000000,#FFFFFF);" edge="1" parent="1">
          <mxGeometry width="50" height="50" relative="1" as="geometry">
            <mxPoint x="420" y="219.66" as="sourcePoint" />
            <mxPoint x="460" y="219.66" as="targetPoint" />
          </mxGeometry>
        </mxCell>
        <mxCell id="E6wu_Sl9GeRM73bdmKUh-19" value="" style="endArrow=none;dashed=1;html=1;dashPattern=1 3;strokeWidth=2;rounded=0;strokeColor=light-dark(#000000,#FFFFFF);" edge="1" parent="1">
          <mxGeometry width="50" height="50" relative="1" as="geometry">
            <mxPoint x="420" y="59.66" as="sourcePoint" />
            <mxPoint x="460" y="59.66" as="targetPoint" />
          </mxGeometry>
        </mxCell>
        <mxCell id="E6wu_Sl9GeRM73bdmKUh-24" value="" style="edgeStyle=orthogonalEdgeStyle;rounded=0;orthogonalLoop=1;jettySize=auto;html=1;entryX=0.5;entryY=0;entryDx=0;entryDy=0;strokeColor=light-dark(#FF0000,#FFFFFF);" edge="1" parent="1" source="E6wu_Sl9GeRM73bdmKUh-21" target="E6wu_Sl9GeRM73bdmKUh-23">
          <mxGeometry relative="1" as="geometry">
            <mxPoint x="360" y="330" as="targetPoint" />
          </mxGeometry>
        </mxCell>
        <mxCell id="E6wu_Sl9GeRM73bdmKUh-21" value="Nhập số lượng hàng tồn kho muốn xuất" style="rounded=1;whiteSpace=wrap;html=1;arcSize=40;fontColor=#000000;fillColor=#ffffc0;strokeColor=light-dark(#FF0000,#FFFFFF);" vertex="1" parent="1">
          <mxGeometry x="100" y="280" width="120" height="40" as="geometry" />
        </mxCell>
        <mxCell id="E6wu_Sl9GeRM73bdmKUh-26" value="" style="edgeStyle=orthogonalEdgeStyle;rounded=0;orthogonalLoop=1;jettySize=auto;html=1;strokeColor=light-dark(#FF0000,#FFFFFF);" edge="1" parent="1" source="E6wu_Sl9GeRM73bdmKUh-23" target="E6wu_Sl9GeRM73bdmKUh-25">
          <mxGeometry relative="1" as="geometry" />
        </mxCell>
        <mxCell id="E6wu_Sl9GeRM73bdmKUh-30" value="" style="edgeStyle=orthogonalEdgeStyle;rounded=0;orthogonalLoop=1;jettySize=auto;html=1;strokeColor=light-dark(#FF0000,#FFFFFF);" edge="1" parent="1" source="E6wu_Sl9GeRM73bdmKUh-23" target="E6wu_Sl9GeRM73bdmKUh-29">
          <mxGeometry relative="1" as="geometry" />
        </mxCell>
        <mxCell id="E6wu_Sl9GeRM73bdmKUh-23" value="Xác nhận&lt;br&gt;xuất hàng" style="rhombus;whiteSpace=wrap;html=1;fontColor=#000000;fillColor=#ffffc0;strokeColor=light-dark(#FF0000,#FFFFFF);" vertex="1" parent="1">
          <mxGeometry x="300" y="320" width="120" height="80" as="geometry" />
        </mxCell>
        <mxCell id="E6wu_Sl9GeRM73bdmKUh-28" value="" style="edgeStyle=orthogonalEdgeStyle;rounded=0;orthogonalLoop=1;jettySize=auto;html=1;strokeColor=light-dark(#FF0000,#FFFFFF);" edge="1" parent="1" source="E6wu_Sl9GeRM73bdmKUh-25" target="E6wu_Sl9GeRM73bdmKUh-27">
          <mxGeometry relative="1" as="geometry" />
        </mxCell>
        <mxCell id="E6wu_Sl9GeRM73bdmKUh-25" value="Cập nhật thông tin&lt;br&gt;mới vào CSDL" style="rounded=1;whiteSpace=wrap;html=1;arcSize=40;fontColor=#000000;fillColor=#ffffc0;strokeColor=light-dark(#FF0000,#FFFFFF);" vertex="1" parent="1">
          <mxGeometry x="300" y="440" width="120" height="40" as="geometry" />
        </mxCell>
        <mxCell id="E6wu_Sl9GeRM73bdmKUh-31" value="" style="edgeStyle=orthogonalEdgeStyle;rounded=0;orthogonalLoop=1;jettySize=auto;html=1;strokeColor=light-dark(#FF0000,#FFFFFF);" edge="1" parent="1" source="E6wu_Sl9GeRM73bdmKUh-27" target="E6wu_Sl9GeRM73bdmKUh-29">
          <mxGeometry relative="1" as="geometry" />
        </mxCell>
        <mxCell id="E6wu_Sl9GeRM73bdmKUh-44" style="edgeStyle=orthogonalEdgeStyle;rounded=0;orthogonalLoop=1;jettySize=auto;html=1;entryX=1;entryY=0.5;entryDx=0;entryDy=0;strokeColor=light-dark(#FF0000,#FFFFFF);" edge="1" parent="1" source="E6wu_Sl9GeRM73bdmKUh-27" target="E6wu_Sl9GeRM73bdmKUh-35">
          <mxGeometry relative="1" as="geometry">
            <Array as="points">
              <mxPoint x="620" y="460" />
              <mxPoint x="620" y="140" />
            </Array>
          </mxGeometry>
        </mxCell>
        <mxCell id="E6wu_Sl9GeRM73bdmKUh-27" value="Xuất hàng khác" style="rhombus;whiteSpace=wrap;html=1;fontColor=#000000;fillColor=#ffffc0;strokeColor=light-dark(#FF0000,#FFFFFF);" vertex="1" parent="1">
          <mxGeometry x="460" y="420" width="120" height="80" as="geometry" />
        </mxCell>
        <mxCell id="E6wu_Sl9GeRM73bdmKUh-29" value="" style="ellipse;html=1;shape=endState;fillColor=#000000;strokeColor=light-dark(#FF0000,#FFFFFF);" vertex="1" parent="1">
          <mxGeometry x="505" y="345" width="30" height="30" as="geometry" />
        </mxCell>
        <mxCell id="E6wu_Sl9GeRM73bdmKUh-37" value="" style="edgeStyle=orthogonalEdgeStyle;rounded=0;orthogonalLoop=1;jettySize=auto;html=1;strokeColor=light-dark(#FF0000,#FFFFFF);" edge="1" parent="1" source="E6wu_Sl9GeRM73bdmKUh-35" target="E6wu_Sl9GeRM73bdmKUh-9">
          <mxGeometry relative="1" as="geometry" />
        </mxCell>
        <mxCell id="E6wu_Sl9GeRM73bdmKUh-35" value="Hiển thị danh sách mặt hàng" style="rounded=1;whiteSpace=wrap;html=1;arcSize=40;fontColor=#000000;fillColor=#ffffc0;strokeColor=light-dark(#FF0000,#FFFFFF);" vertex="1" parent="1">
          <mxGeometry x="300" y="120" width="120" height="40" as="geometry" />
        </mxCell>
      </root>
    </mxGraphModel>
  </diagram>
</mxfile>
